{
  "asset": {
    "generator": "Khronos glTF Blender I/O v4.0.44",
    "version": "2.0"
  },
  "buffers": [
    {
      "uri": "data:application/octet-stream;base64,",
      "byteLength": 2520
    }
  ],
  "bufferViews": [
    {
      "buffer": 0,
      "byteOffset": 0,
      "byteLength": 288,
      "byteStride": 12,
      "target": 34962
    },
    {
      "buffer": 0,
      "byteOffset": 288,
      "byteLength": 288,
      "byteStride": 12,
      "target": 34962
    },
    {
      "buffer": 0,
      "byteOffset": 576,
      "byteLength": 192,
      "byteStride": 8,
      "target": 34962
    },
    {
      "buffer": 0,
      "byteOffset": 768,
      "byteLength": 72,
      "target": 34963
    },
    {
      "buffer": 0,
      "byteOffset": 840,
      "byteLength": 288,
      "byteStride": 12,
      "target": 34962
    },
    {
      "buffer": 0,
      "byteOffset": 1128,
      "byteLength": 288,
      "byteStride": 12,
      "target": 34962
    },
    {
      "buffer": 0,
      "byteOffset": 1416,
      "byteLength": 192,
      "byteStride": 8,
      "target": 34962
    },
    {
      "buffer": 0,
      "byteOffset": 1608,
      "byteLength": 72,
      "target": 34963
    },
    {
      "buffer": 0,
      "byteOffset": 1680,
      "byteLength": 288,
      "byteStride": 12,
      "target": 34962
    },
    {
      "buffer": 0,
      "byteOffset": 1968,
      "byteLength": 288,
      "byteStride": 12,
      "target": 34962
    },
    {
      "buffer": 0,
      "byteOffset": 2256,
      "byteLength": 192,
      "byteStride": 8,
      "target": 34962
    },
    {
      "buffer": 0,
      "byteOffset": 2448,
      "byteLength": 72,
      "target": 34963
    }
  ],
  "accessors": [
    {
      "bufferView": 0,
      "byteOffset": 0,
      "componentType": 5126,
      "normalized": false,
      "count": 24,
      "min": [
        -7.732983589172363,
        -0.5357625484466553,
        -10.792675018310547
      ],
      "max": [
        7.732983589172363,
        0.5357625484466553,
        10.792675018310547
      ],
      "type": "VEC3"
    },
    {
      "bufferView": 1,
      "byteOffset": 0,
      "componentType": 5126,
      "normalized": false,
      "count": 24,
      "min": [
        -1,
        -1,
        -1
      ],
      "max": [
        1,
        1,
        1
      ],
      "type": "VEC3"
    },
    {
      "bufferView": 2,
      "byteOffset": 0,
      "componentType": 5126,
      "normalized": false,
      "count": 24,
      "min": [
        0.125,
        0
      ],
      "max": [
        0.875,
        1
      ],
      "type": "VEC2"
    },
    {
      "bufferView": 3,
      "byteOffset": 0,
      "componentType": 5123,
      "normalized": false,
      "count": 36,
      "min": [
        0
      ],
      "max": [
        23
      ],
      "type": "SCALAR"
    },
    {
      "bufferView": 4,
      "byteOffset": 0,
      "componentType": 5126,
      "normalized": false,
      "count": 24,
      "min": [
        -0.5395889282226562,
        -1.1303277015686035,
        -24.8668270111084
      ],
      "max": [
        0.5395889282226562,
        1.1303277015686035,
        24.8668270111084
      ],
      "type": "VEC3"
    },
    {
      "bufferView": 5,
      "byteOffset": 0,
      "componentType": 5126,
      "normalized": false,
      "count": 24,
      "min": [
        -1,
        -1,
        -1
      ],
      "max": [
        1,
        1,
        1
      ],
      "type": "VEC3"
    },
    {
      "bufferView": 6,
      "byteOffset": 0,
      "componentType": 5126,
      "normalized": false,
      "count": 24,
      "min": [
        0.125,
        0
      ],
      "max": [
        0.875,
        1
      ],
      "type": "VEC2"
    },
    {
      "bufferView": 7,
      "byteOffset": 0,
      "componentType": 5123,
      "normalized": false,
      "count": 36,
      "min": [
        0
      ],
      "max": [
        23
      ],
      "type": "SCALAR"
    },
    {
      "bufferView": 8,
      "byteOffset": 0,
      "componentType": 5126,
      "normalized": false,
      "count": 24,
      "min": [
        -0.5395889282226562,
        -1.1303277015686035,
        -24.8668270111084
      ],
      "max": [
        0.5395889282226562,
        1.1303277015686035,
        24.8668270111084
      ],
      "type": "VEC3"
    },
    {
      "bufferView": 9,
      "byteOffset": 0,
      "componentType": 5126,
      "normalized": false,
      "count": 24,
      "min": [
        -1,
        -1,
        -1
      ],
      "max": [
        1,
        1,
        1
      ],
      "type": "VEC3"
    },
    {
      "bufferView": 10,
      "byteOffset": 0,
      "componentType": 5126,
      "normalized": false,
      "count": 24,
      "min": [
        0.125,
        0
      ],
      "max": [
        0.875,
        1
      ],
      "type": "VEC2"
    },
    {
      "bufferView": 11,
      "byteOffset": 0,
      "componentType": 5123,
      "normalized": false,
      "count": 36,
      "min": [
        0
      ],
      "max": [
        23
      ],
      "type": "SCALAR"
    }
  ],
  "scene": 0,
  "scenes": [
    {
      "nodes": [
        0,
        1,
        2
      ],
      "name": "Scene"
    }
  ],
  "nodes": [
    {
      "name": "Floor",
      "matrix": [
        1.939742922782898,
        0,
        0,
        0,
        0,
        0.2799748480319977,
        0,
        0,
        0,
        0,
        1.8531086444854736,
        0,
        0,
        0,
        0,
        1
      ],
      "mesh": 0
    },
    {
      "name": "LWall",
      "matrix": [
        0.5559788346290588,
        0,
        0,
        0,
        0,
        0.9557670950889587,
        0,
        0,
        0,
        0,
        0.8042843341827393,
        0,
        -15.300000190734863,
        0,
        0,
        1
      ],
      "mesh": 1
    },
    {
      "name": "RWall",
      "matrix": [
        0.5559788346290588,
        0,
        0,
        0,
        0,
        0.9557670950889587,
        0,
        0,
        0,
        0,
        0.8042843341827393,
        0,
        15.300000190734863,
        0,
        0,
        1
      ],
      "mesh": 2
    }
  ],
  "meshes": [
    {
      "primitives": [
        {
          "material": 0,
          "mode": 4,
          "attributes": {
            "POSITION": 0,
            "NORMAL": 1,
            "TEXCOORD_0": 2
          },
          "indices": 3
        }
      ]
    },
    {
      "primitives": [
        {
          "material": 1,
          "mode": 4,
          "attributes": {
            "POSITION": 4,
            "NORMAL": 5,
            "TEXCOORD_0": 6
          },
          "indices": 7
        }
      ]
    },
    {
      "primitives": [
        {
          "material": 1,
          "mode": 4,
          "attributes": {
            "POSITION": 8,
            "NORMAL": 9,
            "TEXCOORD_0": 10
          },
          "indices": 11
        }
      ]
    }
  ],
  "materials": [
    {
      "name": "Matériau.002",
      "pbrMetallicRoughness": {
        "baseColorFactor": [
          0.8,
          0,
          0.011764705882352941,
          1
        ],
        "metallicFactor": 0.125,
        "roughnessFactor": 0.20000000298023224
      },
      "emissiveFactor": [
        0,
        0,
        0
      ],
      "alphaMode": "OPAQUE",
      "doubleSided": true
    },
    {
      "name": "",
      "pbrMetallicRoughness": {
        "baseColorFactor": [
          1,
          1,
          1,
          1
        ],
        "metallicFactor": 1,
        "roughnessFactor": 1
      },
      "emissiveFactor": [
        0,
        0,
        0
      ],
      "alphaMode": "OPAQUE",
      "doubleSided": false
    }
  ]
}
