{
  "asset": {
    "extras": {
      "author": "pinguinoconpulgares (https://sketchfab.com/pinguinoconpulgares)",
      "license": "CC-BY-4.0 (http://creativecommons.org/licenses/by/4.0/)",
      "source": "https://sketchfab.com/3d-models/cartoon-spaceship-a377d653202f45a68d441a987aa6dbda",
      "title": "Cartoon spaceship"
    },
    "generator": "Sketchfab-12.66.0",
    "version": "2.0"
  },
  "buffers": [
    {
      "uri": "data:application/octet-stream;base64,",
      "byteLength": 427144
    }
  ],
  "bufferViews": [
    {
      "buffer": 0,
      "byteOffset": 0,
      "byteLength": 179016,
      "byteStride": 24,
      "target": 34962
    },
    {
      "buffer": 0,
      "byteOffset": 179016,
      "byteLength": 59672,
      "byteStride": 8,
      "target": 34962
    },
    {
      "buffer": 0,
      "byteOffset": 238688,
      "byteLength": 109224,
      "target": 34963
    },
    {
      "buffer": 0,
      "byteOffset": 347912,
      "byteLength": 2256,
      "byteStride": 24,
      "target": 34962
    },
    {
      "buffer": 0,
      "byteOffset": 350168,
      "byteLength": 752,
      "byteStride": 8,
      "target": 34962
    },
    {
      "buffer": 0,
      "byteOffset": 350920,
      "byteLength": 864,
      "target": 34963
    },
    {
      "buffer": 0,
      "byteOffset": 351784,
      "byteLength": 32256,
      "byteStride": 24,
      "target": 34962
    },
    {
      "buffer": 0,
      "byteOffset": 384040,
      "byteLength": 10752,
      "byteStride": 8,
      "target": 34962
    },
    {
      "buffer": 0,
      "byteOffset": 394792,
      "byteLength": 15360,
      "target": 34963
    },
    {
      "buffer": 0,
      "byteOffset": 410152,
      "byteLength": 3744,
      "byteStride": 24,
      "target": 34962
    },
    {
      "buffer": 0,
      "byteOffset": 413896,
      "byteLength": 1248,
      "byteStride": 8,
      "target": 34962
    },
    {
      "buffer": 0,
      "byteOffset": 415144,
      "byteLength": 1776,
      "target": 34963
    },
    {
      "buffer": 0,
      "byteOffset": 416920,
      "byteLength": 4176,
      "byteStride": 24,
      "target": 34962
    },
    {
      "buffer": 0,
      "byteOffset": 421096,
      "byteLength": 1392,
      "byteStride": 8,
      "target": 34962
    },
    {
      "buffer": 0,
      "byteOffset": 422488,
      "byteLength": 1584,
      "target": 34963
    },
    {
      "buffer": 0,
      "byteOffset": 424072,
      "byteLength": 1728,
      "byteStride": 24,
      "target": 34962
    },
    {
      "buffer": 0,
      "byteOffset": 425800,
      "byteLength": 576,
      "byteStride": 8,
      "target": 34962
    },
    {
      "buffer": 0,
      "byteOffset": 426376,
      "byteLength": 768,
      "target": 34963
    }
  ],
  "accessors": [
    {
      "bufferView": 0,
      "byteOffset": 0,
      "componentType": 5126,
      "normalized": false,
      "count": 7459,
      "min": [
        -1,
        -1,
        -1
      ],
      "max": [
        1,
        1,
        1
      ],
      "type": "VEC3"
    },
    {
      "bufferView": 0,
      "byteOffset": 12,
      "componentType": 5126,
      "normalized": false,
      "count": 7459,
      "min": [
        -3.8917899131774902,
        -2.700740098953247,
        -1.1975699663162231
      ],
      "max": [
        3.8917899131774902,
        1.927489995956421,
        1.1016700267791748
      ],
      "type": "VEC3"
    },
    {
      "bufferView": 1,
      "byteOffset": 0,
      "componentType": 5126,
      "normalized": false,
      "count": 7459,
      "min": [
        0.003019999945536256,
        0.003010000102221966
      ],
      "max": [
        0.9969800114631653,
        0.9923400282859802
      ],
      "type": "VEC2"
    },
    {
      "bufferView": 2,
      "byteOffset": 0,
      "componentType": 5125,
      "normalized": false,
      "count": 27306,
      "min": [
        0
      ],
      "max": [
        7458
      ],
      "type": "SCALAR"
    },
    {
      "bufferView": 3,
      "byteOffset": 0,
      "componentType": 5126,
      "normalized": false,
      "count": 94,
      "min": [
        -0.9640796184539795,
        -0.9182894825935364,
        -0.08350985497236252
      ],
      "max": [
        0.9640796184539795,
        -0.171430766582489,
        0.9628072381019592
      ],
      "type": "VEC3"
    },
    {
      "bufferView": 3,
      "byteOffset": 12,
      "componentType": 5126,
      "normalized": false,
      "count": 94,
      "min": [
        -0.9919800162315369,
        -2.0751500129699707,
        -0.21895000338554382
      ],
      "max": [
        0.9919800162315369,
        -0.8179500102996826,
        0.9333800077438354
      ],
      "type": "VEC3"
    },
    {
      "bufferView": 4,
      "byteOffset": 0,
      "componentType": 5126,
      "normalized": false,
      "count": 94,
      "min": [
        0.5511000156402588,
        0.7186400294303894
      ],
      "max": [
        0.8722500205039978,
        0.8694999814033508
      ],
      "type": "VEC2"
    },
    {
      "bufferView": 5,
      "byteOffset": 0,
      "componentType": 5125,
      "normalized": false,
      "count": 216,
      "min": [
        0
      ],
      "max": [
        93
      ],
      "type": "SCALAR"
    },
    {
      "bufferView": 6,
      "byteOffset": 0,
      "componentType": 5126,
      "normalized": false,
      "count": 1344,
      "min": [
        -1,
        -1,
        -1
      ],
      "max": [
        1,
        1,
        1
      ],
      "type": "VEC3"
    },
    {
      "bufferView": 6,
      "byteOffset": 12,
      "componentType": 5126,
      "normalized": false,
      "count": 1344,
      "min": [
        -3.2512800693511963,
        -1.568850040435791,
        -0.9476400017738342
      ],
      "max": [
        3.2512800693511963,
        1.3903100490570068,
        0.6139699816703796
      ],
      "type": "VEC3"
    },
    {
      "bufferView": 7,
      "byteOffset": 0,
      "componentType": 5126,
      "normalized": false,
      "count": 1344,
      "min": [
        0.05835999920964241,
        0.003010000102221966
      ],
      "max": [
        0.991599977016449,
        0.9969900250434875
      ],
      "type": "VEC2"
    },
    {
      "bufferView": 8,
      "byteOffset": 0,
      "componentType": 5125,
      "normalized": false,
      "count": 3840,
      "min": [
        0
      ],
      "max": [
        1343
      ],
      "type": "SCALAR"
    },
    {
      "bufferView": 9,
      "byteOffset": 0,
      "componentType": 5126,
      "normalized": false,
      "count": 156,
      "min": [
        -0.0072601609863340855,
        -1,
        -1
      ],
      "max": [
        0.0072601609863340855,
        0.25813573598861694,
        0
      ],
      "type": "VEC3"
    },
    {
      "bufferView": 9,
      "byteOffset": 12,
      "componentType": 5126,
      "normalized": false,
      "count": 156,
      "min": [
        -1.607890009880066,
        -2.302109956741333,
        -1.1714600324630737
      ],
      "max": [
        1.607890009880066,
        0.7587400078773499,
        0.561489999294281
      ],
      "type": "VEC3"
    },
    {
      "bufferView": 10,
      "byteOffset": 0,
      "componentType": 5126,
      "normalized": false,
      "count": 156,
      "min": [
        0.07992000132799149,
        0.10193999856710434
      ],
      "max": [
        0.8929100036621094,
        0.9785299897193909
      ],
      "type": "VEC2"
    },
    {
      "bufferView": 11,
      "byteOffset": 0,
      "componentType": 5125,
      "normalized": false,
      "count": 444,
      "min": [
        0
      ],
      "max": [
        155
      ],
      "type": "SCALAR"
    },
    {
      "bufferView": 12,
      "byteOffset": 0,
      "componentType": 5126,
      "normalized": false,
      "count": 174,
      "min": [
        -0.9999185800552368,
        -1,
        -1
      ],
      "max": [
        0.9999185800552368,
        1,
        1
      ],
      "type": "VEC3"
    },
    {
      "bufferView": 12,
      "byteOffset": 12,
      "componentType": 5126,
      "normalized": false,
      "count": 174,
      "min": [
        -3.8917899131774902,
        -2.2947299480438232,
        -1.1843899488449097
      ],
      "max": [
        3.8917899131774902,
        1.927489995956421,
        1.0572700500488281
      ],
      "type": "VEC3"
    },
    {
      "bufferView": 13,
      "byteOffset": 0,
      "componentType": 5126,
      "normalized": false,
      "count": 174,
      "min": [
        0.023490000516176224,
        0.003010000102221966
      ],
      "max": [
        0.9927600026130676,
        0.8906599879264832
      ],
      "type": "VEC2"
    },
    {
      "bufferView": 14,
      "byteOffset": 0,
      "componentType": 5125,
      "normalized": false,
      "count": 396,
      "min": [
        0
      ],
      "max": [
        173
      ],
      "type": "SCALAR"
    },
    {
      "bufferView": 15,
      "byteOffset": 0,
      "componentType": 5126,
      "normalized": false,
      "count": 72,
      "min": [
        0,
        -1,
        0
      ],
      "max": [
        0,
        1,
        0
      ],
      "type": "VEC3"
    },
    {
      "bufferView": 15,
      "byteOffset": 12,
      "componentType": 5126,
      "normalized": false,
      "count": 72,
      "min": [
        -2.8832600116729736,
        -1.9495400190353394,
        -0.7450000047683716
      ],
      "max": [
        2.8832600116729736,
        1.083240032196045,
        -0.06210999935865402
      ],
      "type": "VEC3"
    },
    {
      "bufferView": 16,
      "byteOffset": 0,
      "componentType": 5126,
      "normalized": false,
      "count": 72,
      "min": [
        0.6776400208473206,
        0.38258999586105347
      ],
      "max": [
        0.9216399788856506,
        0.9671499729156494
      ],
      "type": "VEC2"
    },
    {
      "bufferView": 17,
      "byteOffset": 0,
      "componentType": 5125,
      "normalized": false,
      "count": 192,
      "min": [
        0
      ],
      "max": [
        71
      ],
      "type": "SCALAR"
    }
  ],
  "scene": 0,
  "scenes": [
    {
      "nodes": [
        8
      ],
      "name": "Sketchfab_Scene"
    }
  ],
  "nodes": [
    {
      "name": "Cube.003_0",
      "mesh": 0
    },
    {
      "name": "Cube.003_1",
      "mesh": 1
    },
    {
      "name": "Cube.003_2",
      "mesh": 2
    },
    {
      "name": "Cube.003_3",
      "mesh": 3
    },
    {
      "name": "Cube.003_4",
      "mesh": 4
    },
    {
      "name": "Cube.003_5",
      "mesh": 5
    },
    {
      "name": "Cube.003",
      "children": [
        0,
        1,
        2,
        3,
        4,
        5
      ],
      "matrix": [
        0.26231950521469116,
        -2.3751744979127436e-34,
        1.580415910555245e-17,
        0,
        -7.511385628094745e-26,
        0.26231661438941956,
        1.2467497034762687e-9,
        0,
        -1.5803904333923783e-17,
        -1.2467432641827259e-9,
        0.2623152732849121,
        0,
        -0.14219999313354492,
        0.014990000054240227,
        2.111829996109009,
        1
      ]
    },
    {
      "name": "Root",
      "children": [
        6
      ]
    },
    {
      "name": "Sketchfab_model",
      "children": [
        7
      ],
      "matrix": [
        1.6147607564926147,
        0,
        0,
        0,
        0,
        5.52709060741563e-8,
        -1.6147607564926147,
        0,
        0,
        1.6147607564926147,
        5.52709060741563e-8,
        0,
        0,
        0,
        0,
        1
      ]
    }
  ],
  "meshes": [
    {
      "primitives": [
        {
          "material": 0,
          "mode": 4,
          "attributes": {
            "NORMAL": 0,
            "POSITION": 1,
            "TEXCOORD_0": 2
          },
          "indices": 3
        }
      ]
    },
    {
      "primitives": [
        {
          "material": 1,
          "mode": 4,
          "attributes": {
            "NORMAL": 4,
            "POSITION": 5,
            "TEXCOORD_0": 6
          },
          "indices": 7
        }
      ]
    },
    {
      "primitives": [
        {
          "material": 2,
          "mode": 4,
          "attributes": {
            "NORMAL": 8,
            "POSITION": 9,
            "TEXCOORD_0": 10
          },
          "indices": 11
        }
      ]
    },
    {
      "primitives": [
        {
          "material": 3,
          "mode": 4,
          "attributes": {
            "NORMAL": 12,
            "POSITION": 13,
            "TEXCOORD_0": 14
          },
          "indices": 15
        }
      ]
    },
    {
      "primitives": [
        {
          "material": 4,
          "mode": 4,
          "attributes": {
            "NORMAL": 16,
            "POSITION": 17,
            "TEXCOORD_0": 18
          },
          "indices": 19
        }
      ]
    },
    {
      "primitives": [
        {
          "material": 5,
          "mode": 4,
          "attributes": {
            "NORMAL": 20,
            "POSITION": 21,
            "TEXCOORD_0": 22
          },
          "indices": 23
        }
      ]
    }
  ],
  "materials": [
    {
      "name": "PINTURA",
      "pbrMetallicRoughness": {
        "baseColorFactor": [
          1,
          1,
          1,
          1
        ],
        "metallicFactor": 0,
        "roughnessFactor": 0.6,
        "baseColorTexture": {
          "index": 0,
          "texCoord": 0
        }
      },
      "emissiveFactor": [
        0,
        0,
        0
      ],
      "alphaMode": "OPAQUE",
      "doubleSided": true
    },
    {
      "name": "cabina",
      "pbrMetallicRoughness": {
        "baseColorFactor": [
          1,
          0.30196078431372547,
          0,
          1
        ],
        "metallicFactor": 0,
        "roughnessFactor": 0.6
      },
      "emissiveFactor": [
        0.42745098039215684,
        0.09803921568627451,
        0.00392156862745098
      ],
      "alphaMode": "OPAQUE",
      "doubleSided": true
    },
    {
      "name": "base",
      "pbrMetallicRoughness": {
        "baseColorFactor": [
          1,
          1,
          1,
          1
        ],
        "metallicFactor": 0,
        "roughnessFactor": 0.6,
        "baseColorTexture": {
          "index": 0,
          "texCoord": 0
        }
      },
      "emissiveFactor": [
        0,
        0,
        0
      ],
      "alphaMode": "OPAQUE",
      "doubleSided": true
    },
    {
      "name": "Material.004",
      "pbrMetallicRoughness": {
        "baseColorFactor": [
          0.00392156862745098,
          0.00392156862745098,
          0.00392156862745098,
          1
        ],
        "metallicFactor": 0,
        "roughnessFactor": 0.6
      },
      "emissiveFactor": [
        0,
        0,
        0
      ],
      "alphaMode": "OPAQUE",
      "doubleSided": true
    },
    {
      "name": "Material.005",
      "pbrMetallicRoughness": {
        "baseColorFactor": [
          1,
          1,
          1,
          1
        ],
        "metallicFactor": 0,
        "roughnessFactor": 0.6,
        "baseColorTexture": {
          "index": 0,
          "texCoord": 0
        }
      },
      "emissiveFactor": [
        0,
        0,
        0
      ],
      "alphaMode": "OPAQUE",
      "doubleSided": true
    },
    {
      "name": "Material.006",
      "pbrMetallicRoughness": {
        "baseColorFactor": [
          1,
          0.9019607843137255,
          0,
          1
        ],
        "metallicFactor": 0,
        "roughnessFactor": 0.6
      },
      "emissiveFactor": [
        1,
        1,
        0.043137254901960784
      ],
      "alphaMode": "OPAQUE",
      "doubleSided": true
    }
  ],
  "textures": [
    {
      "sampler": 0,
      "name": "textures/PINTURA_baseColor.png",
      "source": 0
    }
  ],
  "samplers": [
    {
      "magFilter": 9729,
      "minFilter": 9987,
      "wrapS": 10497,
      "wrapT": 10497
    }
  ],
  "images": [
    {
      "uri": "data:image/png;base64,",
      "mimeType": "image/png",
      "name": "textures/PINTURA_baseColor.png"
    }
  ]
}
